<mxfile host="app.diagrams.net" modified="2023-04-24T06:39:31.785Z" agent="Mozilla/5.0 (Windows NT 10.0; Win64; x64) AppleWebKit/537.36 (KHTML, like Gecko) Chrome/111.0.0.0 Safari/537.36" version="21.2.1" etag="BHYepj3oYe_n2tHa1lbJ" type="github">
  <diagram name="第 1 页" id="aOQYl0W23nEa84Rxwg_u">
    <mxGraphModel>
      <root>
        <mxCell id="0" />
        <mxCell id="1" parent="0" />
      </root>
    </mxGraphModel>
  </diagram>
</mxfile>
